<svg xmlns="http://www.w3.org/2000/svg" viewBox="0 0 869.693 508.657"><title>BlastBlastersControls</title><path d="M345.307,195.308c-29.992-.22-72.465,16.989-89.292,23.661-4.788,1.9-17.392,18.814-25.217,35.257-3.5,7.354-29.281,82.156-29.281,82.156s-12.143,57.839-10,92.125,22.844,65.719,22.844,65.719,17.557,17.1,27,20.687c11.3,4.294,31.854,6.91,43,5.031,25.866-4.359,98.438-41.295,103.438-43.437a102.144,102.144,0,0,1,14.688-5.312c3.52,3.343,30.116,5.629,43.688,1.344s20.918-7.947,27.219-13.25c11.761-.637,32.973-.6,52.406-.5,19.394-.1,40.544-.137,52.281.5,6.288,5.3,13.612,8.965,27.156,13.25s40.113,2,43.625-1.344a101.486,101.486,0,0,1,14.625,5.313c4.99,2.142,77.436,39.079,103.25,43.437,11.123,1.878,31.627-.77,42.906-5.062,9.424-3.587,26.938-20.656,26.938-20.656s20.674-31.41,22.813-65.687-9.969-92.125-9.969-92.125S823.7,261.641,820.2,254.289c-7.809-16.44-21.039-34.913-25.817-36.811-12.279-4.878-36.23-16.619-63.119-20.786-16.694-2.588-36.6-2.9-50.752,1.724-9.547,3.119-17.962,11.176-24.281,14.777-7.38,4.206-37.514,22.432-54.622,26.717-24.915,4.167-50.53,3.976-75.562,3.318,0,0-58.828.684-75.971-3.6s-40.015-19.758-47.411-23.964c-6.332-3.6-10.845-7.526-24.955-14.165-10.907-6.361-22.634-6.187-32.406-6.188Z" transform="translate(-65.153 -45.671)" style="fill:#c7c7c7;stroke:#000"/><path d="M499.177,410.652c0,33.613-33.3,60.862-74.372,60.862s-74.372-27.249-74.372-60.862,33.3-60.862,74.372-60.862S499.177,377.039,499.177,410.652Z" transform="translate(-65.153 -45.671)" style="fill:#e1e1e1;stroke:#000;stroke-width:0.9990000128746033px"/><path d="M493.343,416.25c0,31.1-31.192,56.3-69.67,56.3S354,447.346,354,416.25s31.192-56.3,69.67-56.3S493.343,385.154,493.343,416.25Z" transform="translate(-65.153 -45.671)" style="fill:#c9c9c9;stroke:#000;stroke-width:0.9990000128746033px"/><path d="M345.673,140.445a138.823,138.823,0,0,0-28.844,3.781,24.732,24.732,0,0,0-10.344,5.563L274.423,179.82s-5.044,5.188-5.549,5.819c-6.491,8.114-7.954,8.2-8.964,10.223s-4.314,5.429-5.956,7.829c-1.038,1.517-3.766,6.46-5.281,7.723S227.2,263.507,227.2,263.507s23.015-24.473,38.04-30.871c32.52-13.846,70.519-19.707,105.231-13.043,27.173,5.216,46.125,32.427,72.741,39.989,26.055,7.4,54.067,4.3,81.153,4.143,29.584-.172,60.1,2.444,88.579-5.559,26.585-7.469,46.158-33.463,73.285-38.632,35.9-6.84,76.518-4.886,108.988,11.882,12.734,6.576,28.545,32.152,28.545,32.152s-19.894-50.863-21.406-52.125c-1.133-1.894-4.019-5.671-4.524-7.439s-6.968-7.2-7.976-9.217-1.023-.239-7.67-8.2c-2-2.4-5.549-6.7-5.549-6.7l-32-30.031a24.842,24.842,0,0,0-10.344-5.562c-6.553-1.767-33.232-6.7-50.906-1.25-13.665,4.213-15.625,6.813-15.625,6.813s-7.549,9.358-13.094,11.125-30.483,18.42-48.125,20.188-34.8,4.546-40.844,3.031S525.8,183.1,525.8,183.1v-.062s-33.939-.421-40,1.094-23.229-1.263-40.906-3.031-42.694-18.451-48.25-20.219-13.125-11.094-13.125-11.094-1.885-3.1-15.656-6.812A80.612,80.612,0,0,0,345.673,140.445Z" transform="translate(-65.153 -45.671)" style="fill:#dadada;stroke:#000"/><path d="M322,134.371,367.479,146.5l-12.358,46.463-42.446-10.705Z" transform="translate(-65.153 -45.671)" style="stroke:#000;stroke-width:0.9798423051834106px"/><path d="M313.111,179.588s6.429-39.464,6.607-42.143,2.143-19.107,2.679-21.429,6.786-7.679,9.107-7.679h19.464s11.964,1.964,12.321,10.357.536,17.321.536,17.321l-3.214,41.071Z" transform="translate(-65.153 -45.671)" style="fill:#f8f8f8;stroke:#000"/><path d="M708.267,194.82c-10.005-.049-19.787.993-27.75,3.594-9.547,3.119-17.962,11.181-24.281,14.781-7.38,4.206-37.517,22.434-54.625,26.719-24.915,4.167-50.53,3.971-75.562,3.313,0,0-58.826.692-75.969-3.594s-40.011-19.762-47.406-23.969c-6.332-3.6-10.765-7.42-24.876-14.059-10.907-6.361-22.727-6.284-32.5-6.285-29.992-.22-72.454,15.848-89.281,22.52-4.7,1.865-16.932,19.348-24.781,35.511-2.3,5.8-4.031,10.156-4.031,10.156s23.006-24.478,38.031-30.875c32.52-13.846,70.538-19.695,105.25-13.031,27.173,5.216,46.1,32.406,72.719,39.969,26.055,7.4,54.07,4.314,81.156,4.156,29.584-.172,60.112,2.44,88.594-5.562,26.585-7.469,46.155-33.457,73.281-38.625,35.9-6.84,76.529-4.893,109,11.875,12.734,6.576,28.531,32.156,28.531,32.156l-4-10.125c-7.854-16.22-20.679-34.1-25.375-35.969-12.279-4.878-36.236-16.614-63.125-20.781A157.417,157.417,0,0,0,708.267,194.82Z" transform="translate(-65.153 -45.671)" style="fill:#f3f3f3;fill-opacity:0.4521276652812958;stroke:#000"/><path d="M255.253,211.553l1.071-10.536s-.714-9.643,13.571-15.714,26.429-13.75,43.036-17.143,26.607-4.286,34.643-4.107,20.714,1.071,22.143,1.607,3.571,6.964,5.357,7.321,6.25,1.607,6.25,1.607l.536,12.679-4.107,14.107s-12.857-8.929-46.607-4.286-44.286,9.821-44.286,9.821S256.682,218.7,255.611,217.8s-.357-6.25-.357-6.25Z" transform="translate(-65.153 -45.671)" style="fill:#f1f1f1;stroke:#000"/><path d="M687.118,145.469l43.58-11.734,12.5,46.437-43.58,11.734Z" transform="translate(-65.153 -45.671)" style="stroke:#000;stroke-width:0.9990000128746033px"/><path d="M741.574,179.149s-6.416-39.455-6.594-42.133-2.138-19.1-2.673-21.424-6.772-7.677-9.089-7.677H703.793s-11.94,1.964-12.3,10.355-.535,17.317-.535,17.317l3.208,41.062Z" transform="translate(-65.153 -45.671)" style="fill:#f8f8f8;stroke:#000;stroke-width:0.9988735318183899px"/><path d="M795.779,211.611l-1.069-10.533s.713-9.641-13.544-15.711-26.375-13.747-42.949-17.139-26.553-4.285-34.573-4.106-20.672,1.071-22.1,1.607-3.564,6.963-5.346,7.32-6.237,1.607-6.237,1.607l-.535,12.676,4.1,14.1s12.831-8.926,46.513-4.285,44.2,9.819,44.2,9.819,30.118,11.783,31.187,10.89.356-6.249.356-6.249Z" transform="translate(-65.153 -45.671)" style="fill:#f1f1f1;stroke:#000;stroke-width:0.9990000128746033px"/><path d="M700.5,314.075c0,11.551-10.722,20.915-23.947,20.915S652.6,325.626,652.6,314.075s10.722-20.915,23.947-20.915S700.5,302.524,700.5,314.075Z" transform="translate(-65.153 -45.671)" style="fill:#0032b0;stroke:#000;stroke-width:0.812425971031189px"/><path d="M698.9,317.446c0,9.665-9.772,17.5-21.826,17.5s-21.826-7.835-21.826-17.5,9.772-17.5,21.826-17.5S698.9,307.781,698.9,317.446Z" transform="translate(-65.153 -45.671)" style="fill:#0e52ff;stroke:#000;stroke-width:0.9303404688835144px"/><path d="M752.855,352.5c1.674,10.856-8.133,21.378-21.9,23.5s-26.293-4.955-27.967-15.811,8.133-21.378,21.9-23.5S751.181,341.644,752.855,352.5Z" transform="translate(-65.153 -45.671)" style="fill:#249500;stroke:#000;stroke-width:0.9990000128746033px"/><path d="M751.567,356.73c1.7,9.963-6.764,19.726-18.917,21.805s-23.386-4.311-25.091-14.274,6.764-19.726,18.917-21.805S749.862,346.766,751.567,356.73Z" transform="translate(-65.153 -45.671)" style="fill:#35d900;stroke:#000;stroke-width:0.9990000128746033px"/><path d="M759.23,260.65c2.993,11.927-5.912,24.439-19.89,27.948s-27.736-3.317-30.729-15.244,5.912-24.439,19.89-27.948,27.736,3.317,30.729,15.244Z" transform="translate(-65.153 -45.671)" style="fill:#d9c300;stroke:#000;stroke-width:0.9990000128746033px"/><path d="M757.172,266.328c2.658,10.994-5.17,22.319-17.484,25.3s-24.451-3.522-27.108-14.515,5.17-22.319,17.484-25.3,24.451,3.522,27.108,14.515Z" transform="translate(-65.153 -45.671)" style="fill:#ffe823;stroke:#000;stroke-width:0.9990000128746033px"/><path d="M809.728,300.112c4.12,10.633-3.042,23.648-16,29.072s-26.8,1.2-30.915-9.432,3.042-23.648,16-29.072S805.608,289.479,809.728,300.112Z" transform="translate(-65.153 -45.671)" style="fill:#ab0b00;stroke:#000;stroke-width:0.9990000128746033px"/><path d="M808.2,304.318c3.588,9.335-2.649,20.763-13.931,25.524s-23.336,1.054-26.924-8.281S770,300.8,781.28,296.037,804.617,294.983,808.2,304.318Z" transform="translate(-65.153 -45.671)" style="fill:#ff1303;stroke:#000;stroke-width:0.9990000128746033px"/><path d="M483.514,417.218c0,26.779-26.965,48.487-60.228,48.487S363.059,444,363.059,417.218s26.965-48.487,60.228-48.487S483.514,390.439,483.514,417.218Z" transform="translate(-65.153 -45.671)" style="fill:#181818;stroke:#000;stroke-width:0.9990000128746033px"/><path d="M478.913,418.917c0,25.539-25.074,46.242-56,46.242s-56-20.7-56-46.242,25.074-46.242,56-46.242S478.913,393.378,478.913,418.917Z" transform="translate(-65.153 -45.671)" style="fill:#999;stroke:#000;stroke-width:0.9990000128746033px"/><path d="M476.251,422.734c0,23.041-23.957,41.72-53.509,41.72s-53.509-18.679-53.509-41.72,23.957-41.72,53.509-41.72S476.251,399.692,476.251,422.734Z" transform="translate(-65.153 -45.671)" style="fill:#848484;stroke:#000;stroke-width:0.9990000128746033px"/><path d="M567.634,314.064c0,18.481-18.425,33.463-41.154,33.463s-41.154-14.982-41.154-33.463S503.752,280.6,526.48,280.6,567.634,295.583,567.634,314.064Z" transform="translate(-65.153 -45.671)" style="fill:#353535;stroke:#000;stroke-width:0.9990000128746033px"/><path d="M560.389,313.882c0,15.094-15.139,27.33-33.813,27.33s-33.813-12.236-33.813-27.33,15.139-27.33,33.813-27.33S560.389,298.788,560.389,313.882Z" transform="translate(-65.153 -45.671)" style="fill:#cacaca;stroke:#000;stroke-width:0.2409307062625885px"/><path d="M422.76,380.726l10.67.505s3.22,1.263,3.788,4.419c.418,2.322,2.9,14.142,3.662,14.773s4.167,6.566,7.2,6.945,23.36,3.283,24.622,4.419,3.157,6.061,3.157,6.061l.253,12.248s-.758,3.788-1.894,4.419-22.1,2.652-22.1,2.652-6.313,1.515-7.45,5.177-3.409,18.814-4.419,19.824-2.4,3.157-5.3,3.536-17.173.631-17.173.631-5.3-1.136-6.566-2.9-4.419-17.425-4.419-17.425a12.522,12.522,0,0,0-8.334-7.2c-6.313-1.641-18.183-.253-21.718-1.894s-5.935-4.672-6.187-7.324-1.389-11.869-.884-12.627,2.9-5.3,4.293-5.43,20.456-2.273,22.6-3.914,6.945-5.43,7.2-7.955,1.359-16.723,2.336-16.731a8.034,8.034,0,0,1,2.1-1.27c1.048-.555,3.792-.7,7.307-.75,4.419-.063,7.26-.189,7.26-.189Z" transform="translate(-65.153 -45.671)" style="fill:#999;stroke:#000"/><path d="M452.112,303.72s-4.706-.145-5.842-.018-11.3,1.263-11.68,12.059,12.014,12.95,12.014,12.95l5.474.111,5.764.018s12.608-1.715,12.8-12.638-13.006-12.437-13.006-12.437Z" transform="translate(-65.153 -45.671)" style="fill:#f1f1f1;stroke:#000"/><path d="M600.862,304.256s-4.706-.145-5.842-.018-11.3,1.263-11.68,12.059,12.014,12.95,12.014,12.95l5.474.111,5.764.018s12.608-1.715,12.8-12.638S606.384,304.3,606.384,304.3Z" transform="translate(-65.153 -45.671)" style="fill:#f1f1f1;stroke:#000"/><path d="M457.218,313.07l-.268,13.75L443.2,319.5Z" transform="translate(-65.153 -45.671)" style="fill:#d9d9d9;stroke:#000"/><path d="M596.548,313.383l-.67,13.125,14.42-6.25Z" transform="translate(-65.153 -45.671)" style="fill:#d9d9d9;stroke:#000"/><path d="M526.072,315.445l14.647,9.218s7.576,4.672,8.081,5.43,2.02,2.652,2.02,2.652a32.168,32.168,0,0,0,2.462-2.273c.379-.505-.316-2.841-.316-2.841s-1.642-3.977-8.207-9.028a94.39,94.39,0,0,1-11.869-11.112l6.44-7.45s4.735-5.366,5.682-5.808c.472-.22,2.462-1.452,2.462-1.452a12.418,12.418,0,0,0-4.356-2.589c-2.273-.631-17.551,9.218-17.551,9.218s-15.72-7.26-17.993-8.018a18.784,18.784,0,0,0-4.546,2.841,7.175,7.175,0,0,1,3.536,1.894s10.092,9.523,10.8,10.291,1.2,1.263,1.2,1.263l-11,12s-5.858,7.429-5.808,9.36c.038,1.485-.763,2.468-.268,3.062,0,0,3.567,3.567,3.062,2.3s1.263-2.825,1.263-2.825,5.338-4.724,6.913-5.745c1.7-1.1,13.353-10.386,13.353-10.386Z" transform="translate(-65.153 -45.671)" style="fill:#77ec00;stroke:#000"/><path d="M694.641,405.064c0,28.714-32.958,51.991-73.615,51.991s-73.615-23.277-73.615-51.991,32.958-51.991,73.615-51.991S694.641,376.35,694.641,405.064Z" transform="translate(-65.153 -45.671)" style="fill:#dadada;stroke:#000;stroke-width:0.9990000128746033px"/><path d="M669.131,419.912c0,21.777-21.168,39.431-47.281,39.431s-47.281-17.654-47.281-39.431,21.168-39.431,47.281-39.431S669.131,398.135,669.131,419.912Z" transform="translate(-65.153 -45.671)" style="fill:#181818;stroke:#000;stroke-width:0.9990000128746033px"/><path d="M664.549,419.611c0,19.927-19.324,36.081-43.16,36.081s-43.16-16.154-43.16-36.081,19.324-36.081,43.16-36.081S664.549,399.684,664.549,419.611Z" transform="translate(-65.153 -45.671)" style="fill:#757575;stroke:#000;stroke-width:0.9990000128746033px"/><path d="M392.35,324.6c-5.565,30.983-42.282,49.845-82.01,42.129s-67.422-39.087-61.857-70.07,42.282-49.845,82.01-42.129S397.915,293.616,392.35,324.6Z" transform="translate(-65.153 -45.671)" style="fill:#dedede;stroke:#000;stroke-width:0.9990000128746033px"/><path d="M369.329,322.774c0,21.878-21.3,39.614-47.566,39.614S274.2,344.652,274.2,322.774s21.3-39.614,47.566-39.614,47.566,17.736,47.566,39.614Z" transform="translate(-65.153 -45.671)" style="fill:#181818;stroke:#000;stroke-width:0.9990000128746033px"/><path d="M365.263,322.469c0,19.927-19.324,36.081-43.16,36.081s-43.16-16.154-43.16-36.081,19.324-36.081,43.16-36.081S365.263,302.541,365.263,322.469Z" transform="translate(-65.153 -45.671)" style="fill:#757575;stroke:#000;stroke-width:0.9990000128746033px"/><path d="M363.826,335.335c0,21.616-20.393,39.139-45.549,39.139s-45.549-17.523-45.549-39.139S293.121,296.2,318.277,296.2,363.826,313.719,363.826,335.335Z" transform="translate(-65.153 -45.671)" style="fill:#868686;stroke:#000;stroke-width:0.9990000128746033px"/><path d="M666.129,437.109c0,20.394-19.733,36.927-44.075,36.927s-44.075-16.533-44.075-36.927,19.733-36.927,44.075-36.927S666.129,416.714,666.129,437.109Z" transform="translate(-65.153 -45.671)" style="fill:#868686;stroke:#000;stroke-width:0.9990000128746033px"/><path d="M492.956,286.938H491.3V282.8a6.805,6.805,0,0,1-2.144.832v-1a5.8,5.8,0,0,0,1.411-.533,2.364,2.364,0,0,0,1.045-.916h1.346Z" transform="translate(-65.153 -45.671)" style="fill:#686868"/><path d="M564.7,285.465v.98h-4.668a2.219,2.219,0,0,1,.455-1.053,7.859,7.859,0,0,1,1.5-1.32,8.594,8.594,0,0,0,1.1-.9,1.01,1.01,0,0,0,.275-.646.652.652,0,0,0-.239-.543,1.038,1.038,0,0,0-.661-.19,1.026,1.026,0,0,0-.664.2.9.9,0,0,0-.284.661l-1.327-.105a1.622,1.622,0,0,1,.744-1.25,2.971,2.971,0,0,1,1.564-.379,2.646,2.646,0,0,1,1.616.439,1.319,1.319,0,0,1,.588,1.093,1.56,1.56,0,0,1-.168.708,2.832,2.832,0,0,1-.533.7,7.837,7.837,0,0,1-.872.7q-.63.458-.8.608a1.917,1.917,0,0,0-.273.293Z" transform="translate(-65.153 -45.671)" style="fill:#686868"/><path d="M489.768,348.564l1.312-.122a.87.87,0,0,0,.338.588,1.088,1.088,0,0,0,.666.2,1.054,1.054,0,0,0,.707-.244.819.819,0,0,0,.287-.658.766.766,0,0,0-.275-.621,1.013,1.013,0,0,0-.67-.229,3.035,3.035,0,0,0-.622.078l.149-.846a1.456,1.456,0,0,0,.839-.183.594.594,0,0,0,.289-.516.521.521,0,0,0-.212-.436.9.9,0,0,0-.564-.163.96.96,0,0,0-.593.185.787.787,0,0,0-.3.539l-1.249-.163a1.88,1.88,0,0,1,.393-.785,1.751,1.751,0,0,1,.733-.462,3.115,3.115,0,0,1,1.054-.168,2.469,2.469,0,0,1,1.6.488,1.148,1.148,0,0,1,.5.9q0,.713-1.018,1.138a1.787,1.787,0,0,1,.972.447,1.117,1.117,0,0,1,.364.839,1.477,1.477,0,0,1-.68,1.216,2.77,2.77,0,0,1-1.693.5,2.8,2.8,0,0,1-1.592-.423,1.576,1.576,0,0,1-.733-1.107Z" transform="translate(-65.153 -45.671)" style="fill:#686868"/><path d="M561.8,350.055V349h-2.844v-.877l3.014-3.317h1.119v3.314h.863V349h-.863v1.051Zm0-1.931v-1.785l-1.6,1.785Z" transform="translate(-65.153 -45.671)" style="fill:#686868"/><path d="M425.966,302.272l1.628-1.609a6.612,6.612,0,0,1,.761-.672,1.489,1.489,0,0,1,.591-.252,1.47,1.47,0,0,1,.649.031,1.3,1.3,0,0,1,.6.353,1.357,1.357,0,0,1,.3,1.449,1.507,1.507,0,0,1,.938-.2,1.379,1.379,0,0,1,.807.416,1.7,1.7,0,0,1,.4.668,1.53,1.53,0,0,1,.062.768,1.639,1.639,0,0,1-.361.738q-.184.225-.964,1.008l-1.386,1.37Zm1.492-.135.931.942.539-.533q.481-.475.584-.6a.764.764,0,0,0,.188-.474.6.6,0,0,0-.194-.438.628.628,0,0,0-.408-.2.663.663,0,0,0-.451.163q-.136.107-.717.681Zm1.6,1.62,1.076,1.089.761-.752a5.231,5.231,0,0,0,.539-.582.717.717,0,0,0,.138-.458.7.7,0,0,0-.227-.46.747.747,0,0,0-.4-.223.706.706,0,0,0-.441.068,3.929,3.929,0,0,0-.787.662Z" transform="translate(-65.153 -45.671)" style="fill:#686868"/><path d="M438.632,299.718l-1.08.645-1.1-.86-1.965,1.174.262,1.359-1.053.629-1.023-6.06,1.05-.627Zm-2.99-.853-1.767-1.419.426,2.221Z" transform="translate(-65.153 -45.671)" style="fill:#686868"/><path d="M442.105,296.416h1.176a2.515,2.515,0,0,1-.4,1.586,2.7,2.7,0,0,1-3.336.717,2.982,2.982,0,0,1-1.344-1.81,3.13,3.13,0,0,1,.033-2.34,2.532,2.532,0,0,1,1.612-1.34,2.382,2.382,0,0,1,1.815.077,2.259,2.259,0,0,1,.877.829l-1.009.606a1.182,1.182,0,0,0-1.441-.551,1.3,1.3,0,0,0-.847.748,2.24,2.24,0,0,0,.069,1.531,2.4,2.4,0,0,0,.84,1.357,1.268,1.268,0,0,0,1.107.133,1.158,1.158,0,0,0,.667-.519,1.7,1.7,0,0,0,.176-1.023Z" transform="translate(-65.153 -45.671)" style="fill:#686868"/><path d="M444.823,297.919l-.615-5.693,1.15-.124.273,2.528,2.049-2.779,1.546-.167-1.9,2.449,2.636,3.232-1.487.161-1.854-2.5-.829,1.052.186,1.72Z" transform="translate(-65.153 -45.671)" style="fill:#686868"/><path d="M601.956,295.644l1.126-.1a1.373,1.373,0,0,0,.406.835,1.246,1.246,0,0,0,.836.272,1.287,1.287,0,0,0,.844-.23.7.7,0,0,0,.287-.551.521.521,0,0,0-.117-.347.953.953,0,0,0-.414-.251q-.2-.072-.924-.257a3.141,3.141,0,0,1-1.3-.576,1.49,1.49,0,0,1-.519-1.156,1.471,1.471,0,0,1,.254-.816,1.553,1.553,0,0,1,.719-.575,2.865,2.865,0,0,1,1.128-.191,2.415,2.415,0,0,1,1.619.485,1.668,1.668,0,0,1,.563,1.266l-1.157.042a.982.982,0,0,0-.314-.637,1.166,1.166,0,0,0-.731-.2,1.318,1.318,0,0,0-.791.2.417.417,0,0,0-.186.354.44.44,0,0,0,.169.349,3.039,3.039,0,0,0,1.06.391,5.607,5.607,0,0,1,1.245.421,1.609,1.609,0,0,1,.628.587,1.7,1.7,0,0,1,.222.914,1.683,1.683,0,0,1-.28.92,1.639,1.639,0,0,1-.778.633,3.244,3.244,0,0,1-1.248.2,2.479,2.479,0,0,1-1.664-.514,2.183,2.183,0,0,1-.684-1.468Z" transform="translate(-65.153 -45.671)" style="fill:#686868"/><path d="M608.849,297.933l.873-4.677-1.67-.312.178-.952,4.474.835-.178.952-1.667-.311-.873,4.677Z" transform="translate(-65.153 -45.671)" style="fill:#686868"/><path d="M617.223,300.465l-1.178-.441-.013-1.394-2.144-.8-.9,1.053-1.149-.43,4.1-4.582,1.145.428Zm-1.2-2.868.005-2.267-1.469,1.719Z" transform="translate(-65.153 -45.671)" style="fill:#686868"/><path d="M617.772,300.79l2.983-4.888,2.077,1.268a4.166,4.166,0,0,1,1.058.827,1.316,1.316,0,0,1,.283.815,1.652,1.652,0,0,1-.257.9,1.529,1.529,0,0,1-.878.711,1.819,1.819,0,0,1-1.243-.138,2.7,2.7,0,0,1,.278.733,6.521,6.521,0,0,1,.078,1.136l.015,1.318-1.18-.72-.065-1.5a8.1,8.1,0,0,0-.082-1.036.888.888,0,0,0-.173-.384,1.906,1.906,0,0,0-.463-.358l-.2-.122-1.245,2.041Zm2.708-2.219.73.446a4.417,4.417,0,0,0,.924.481.623.623,0,0,0,.4-.038.746.746,0,0,0,.324-.306.687.687,0,0,0,.111-.479.708.708,0,0,0-.255-.419q-.11-.09-.71-.456l-.77-.47Z" transform="translate(-65.153 -45.671)" style="fill:#686868"/><path d="M623.6,304.771l3.136-3.578-1.278-1.12.638-.729,3.423,3-.638.729-1.275-1.117-3.136,3.578Z" transform="translate(-65.153 -45.671)" style="fill:#686868"/><path d="M362.244,336.927c0,20.137-19.639,36.461-43.865,36.461s-43.865-16.324-43.865-36.461,19.639-36.461,43.865-36.461S362.244,316.791,362.244,336.927Z" transform="translate(-65.153 -45.671)" style="fill:#999;stroke:#000;stroke-width:0.9990000128746033px"/><path d="M664.913,438.3c0,19.26-19.147,34.873-42.766,34.873s-42.766-15.613-42.766-34.873,19.147-34.873,42.766-34.873S664.913,419.041,664.913,438.3Z" transform="translate(-65.153 -45.671)" style="fill:#999;stroke:#000;stroke-width:0.9990000128746033px"/><path d="M318.738,312.667a1.988,1.988,0,1,1-1.957-1.641A1.82,1.82,0,0,1,318.738,312.667Z" transform="translate(-65.153 -45.671)" style="fill:#b0b0b0;stroke:#000;stroke-width:0.9990000128746033px"/><path d="M352.073,339.562a1.988,1.988,0,1,1-1.957-1.641A1.82,1.82,0,0,1,352.073,339.562Z" transform="translate(-65.153 -45.671)" style="fill:#b0b0b0;stroke:#000;stroke-width:0.9990000128746033px"/><path d="M318.991,363.68a1.988,1.988,0,1,1-1.957-1.641A1.82,1.82,0,0,1,318.991,363.68Z" transform="translate(-65.153 -45.671)" style="fill:#b0b0b0;stroke:#000;stroke-width:0.9990000128746033px"/><path d="M288.307,337.794a1.988,1.988,0,1,1-1.957-1.641A1.82,1.82,0,0,1,288.307,337.794Z" transform="translate(-65.153 -45.671)" style="fill:#b0b0b0;stroke:#000;stroke-width:0.9990000128746033px"/><path d="M624.814,416.965a1.988,1.988,0,1,1-1.957-1.641A1.82,1.82,0,0,1,624.814,416.965Z" transform="translate(-65.153 -45.671)" style="fill:#afafaf;stroke:#000;stroke-width:0.9990000128746033px"/><path d="M654.993,441.209a1.988,1.988,0,1,1-1.957-1.641A1.82,1.82,0,0,1,654.993,441.209Z" transform="translate(-65.153 -45.671)" style="fill:#979797;stroke:#000;stroke-width:0.9990000128746033px"/><path d="M624.057,462.927a1.988,1.988,0,1,1-1.957-1.641A1.82,1.82,0,0,1,624.057,462.927Z" transform="translate(-65.153 -45.671)" style="fill:#b0b0b0;stroke:#000;stroke-width:0.9990000128746033px"/><path d="M595.394,439.567a1.988,1.988,0,1,1-1.957-1.641A1.82,1.82,0,0,1,595.394,439.567Z" transform="translate(-65.153 -45.671)" style="fill:#b0b0b0;stroke:#000;stroke-width:0.9990000128746033px"/><path d="M734.254,366.59H724.44l-1.549,4.29h-6.308l9.014-23.548h7.482l9.014,23.548h-6.308Zm-8.248-4.369h6.667l-3.325-9.369Z" transform="translate(-65.153 -45.671)" style="fill:#249500"/><path d="M680.8,316.182l8.444,12.018h-6.537l-5.689-8.044-5.64,8.044h-6.569l8.444-12.018-8.118-11.529h6.553l5.33,7.586,5.314-7.586h6.586Z" transform="translate(-65.153 -45.671)" style="fill:#0032b0"/><path d="M721.966,258.817h6.863l5.542,8.391,5.542-8.391h6.879l-9.275,13.627v9.921h-6.276v-9.921Z" transform="translate(-65.153 -45.671)" style="fill:#d9c300"/><path d="M788.61,310.086a3.531,3.531,0,0,0,2.3-.612,2.683,2.683,0,0,0,.05-3.783,3.5,3.5,0,0,0-2.282-.681l-3.536-.047-.068,5.076Zm.076,10.492a4.529,4.529,0,0,0,2.908-.749,2.879,2.879,0,0,0,1-2.364,2.828,2.828,0,0,0-.932-2.35,4.557,4.557,0,0,0-2.895-.818l-3.752-.05-.084,6.281Zm6.058-8.547a5.692,5.692,0,0,1,3.159,2.179,6.343,6.343,0,0,1,1.078,3.838,5.9,5.9,0,0,1-2.493,5.14q-2.447,1.67-7.394,1.6l-10.609-.141.32-23.983,9.6.128q5.163.069,7.459,1.61a5.347,5.347,0,0,1,2.252,4.866,5.124,5.124,0,0,1-.886,2.969,4.966,4.966,0,0,1-2.481,1.79Z" transform="translate(-65.153 -45.671)" style="fill:#ab0b00"/><path d="M256.325,201.017s-.714-9.643,13.571-15.714,26.429-13.75,43.036-17.143,26.607-4.286,34.643-4.107,20.714,1.071,22.143,1.607.519,3.288.054,5.049a17.943,17.943,0,0,1-1.2,3l-.853,3.713-.193,3.248s-4.229-4.454-37.768,1.523c-31.317,5.58-32.038,6.033-32.038,6.033s-11.491,3.073-17.865,5.842c-1.279.556-17.455,5.268-17.455,5.268C260.145,199.89,258.051,200.922,256.325,201.017Z" transform="translate(-65.153 -45.671)" style="fill:#f8f8f8;stroke:#000"/><path d="M323.548,176.246l-.444-6.608,2.321-.156.369,5.485,5.772-.388.075,1.122Z" transform="translate(-65.153 -45.671)" style="fill:#bbb"/><path d="M332.864,168.928l4.6-.309q1.365-.092,2.04-.071a4.454,4.454,0,0,1,1.218.194,2.6,2.6,0,0,1,.92.5,1.073,1.073,0,0,1,.405.756,1.147,1.147,0,0,1-.378.888,2.807,2.807,0,0,1-1.141.666,3.7,3.7,0,0,1,1.656.5,1.243,1.243,0,0,1,.632.966,1.36,1.36,0,0,1-.305.908,2.529,2.529,0,0,1-.95.753,5.015,5.015,0,0,1-1.536.42q-.578.075-2.8.234l-3.914.263Zm2.4.953.1,1.541,1.521-.1q1.357-.091,1.685-.136a2.184,2.184,0,0,0,.921-.3.591.591,0,0,0,.306-.543.582.582,0,0,0-.328-.482,1.854,1.854,0,0,0-.89-.175q-.347,0-1.986.111Zm.178,2.649.12,1.781,2.149-.144q1.255-.084,1.589-.148a1.9,1.9,0,0,0,.825-.323.648.648,0,0,0,.287-.588.641.641,0,0,0-.285-.492,1.629,1.629,0,0,0-.746-.256,13.485,13.485,0,0,0-2.065.043Z" transform="translate(-65.153 -45.671)" style="fill:#bbb"/><path d="M330.625,160.134v-6.622h2.108v5.5h5.24v1.125Z" transform="translate(-65.153 -45.671)" style="fill:#bbb"/><path d="M341.832,160.134v-5.548h-3.1v-1.13h8.295v1.13h-3.09v5.548Z" transform="translate(-65.153 -45.671)" style="fill:#bbb"/><path d="M708.19,160.4v-6.677h4.436a11.662,11.662,0,0,1,2.431.18,2.464,2.464,0,0,1,1.214.64,1.455,1.455,0,0,1,.456,1.052,1.47,1.47,0,0,1-.691,1.241,4.279,4.279,0,0,1-2.065.617,5.248,5.248,0,0,1,1.129.56,8.85,8.85,0,0,1,1.2,1.084l1.274,1.3h-2.52l-1.524-1.453a11.123,11.123,0,0,0-1.111-.982,1.842,1.842,0,0,0-.634-.278,5.346,5.346,0,0,0-1.061-.075H710.3V160.4Zm2.108-3.853h1.559a12.5,12.5,0,0,0,1.894-.082,1.224,1.224,0,0,0,.591-.282.659.659,0,0,0,.214-.5.645.645,0,0,0-.281-.544,1.618,1.618,0,0,0-.794-.262q-.256-.023-1.538-.023H710.3Z" transform="translate(-65.153 -45.671)" style="fill:#bbb"/><path d="M721.07,160.4v-5.548h-3.1v-1.13h8.295v1.13h-3.09V160.4Z" transform="translate(-65.153 -45.671)" style="fill:#bbb"/><path d="M790.333,201.343l4.377-.265s.713-9.641-13.544-15.711-26.375-13.747-42.949-17.139-26.553-4.285-34.573-4.106-18.943.939-20.369,1.475c.663,3.41.464,7.015,1.241,9.769l.885,4.729s2.474-2.766,36.156,1.876,36.607,6.6,36.607,6.6,10.316,4.1,11.633,4.551c3.123,1.072,20.535,8.216,20.535,8.216Z" transform="translate(-65.153 -45.671)" style="fill:#f8f8f8;stroke:#000;stroke-width:0.9990000128746033px"/><path d="M711.368,174.591l.238-6.673,4.894.174a14.183,14.183,0,0,1,2.676.275,2.819,2.819,0,0,1,1.317.687,1.393,1.393,0,0,1,.465,1.069,1.443,1.443,0,0,1-.806,1.213,5.079,5.079,0,0,1-2.3.536,6.052,6.052,0,0,1,1.225.6,9.521,9.521,0,0,1,1.285,1.13l1.36,1.352-2.781-.1-1.629-1.512a12.01,12.01,0,0,0-1.19-1.025,2.146,2.146,0,0,0-.689-.3,6.5,6.5,0,0,0-1.168-.117l-.471-.017-.1,2.786Zm2.462-3.768,1.72.061a15.208,15.208,0,0,0,2.092-.007,1.413,1.413,0,0,0,.662-.259.64.64,0,0,0-.037-1.047,1.913,1.913,0,0,0-.867-.293q-.282-.033-1.7-.083l-1.815-.065Z" transform="translate(-65.153 -45.671)" style="fill:#bbb"/><path d="M723.232,168.333l4.6.164q1.367.049,2.036.139a4.455,4.455,0,0,1,1.192.318,2.6,2.6,0,0,1,.864.589,1.073,1.073,0,0,1,.326.793,1.146,1.146,0,0,1-.467.845,2.807,2.807,0,0,1-1.2.545,3.7,3.7,0,0,1,1.6.663,1.243,1.243,0,0,1,.53,1.026,1.36,1.36,0,0,1-.4.872,2.529,2.529,0,0,1-1.022.652,5.015,5.015,0,0,1-1.571.261q-.583.016-2.806-.054l-3.92-.14Zm2.286,1.193-.055,1.543,1.524.054q1.359.048,1.69.037a2.184,2.184,0,0,0,.947-.206.591.591,0,0,0,.36-.509.582.582,0,0,0-.277-.513,1.854,1.854,0,0,0-.868-.266q-.345-.035-1.987-.094Zm-.095,2.654-.064,1.784,2.152.077q1.257.045,1.6.016a1.9,1.9,0,0,0,.854-.236.648.648,0,0,0,.346-.555.641.641,0,0,0-.233-.519,1.629,1.629,0,0,0-.716-.331,13.485,13.485,0,0,0-2.059-.169Z" transform="translate(-65.153 -45.671)" style="fill:#bbb"/><path d="M681.025,317.192l8.444,12.018h-6.537l-5.689-8.044-5.64,8.044h-6.569l8.444-12.018-8.118-11.529h6.553l5.33,7.586,5.314-7.586h6.586Z" transform="translate(-65.153 -45.671)" style="fill:#85a7ff"/><path d="M723.218,260.459h6.863l5.542,8.391,5.542-8.391h6.879l-9.275,13.627v9.921h-6.276v-9.921Z" transform="translate(-65.153 -45.671)" style="fill:#fff9c1"/><path d="M735.105,368.02h-9.813l-1.549,4.29h-6.308l9.014-23.548h7.482l9.014,23.548h-6.308Zm-8.248-4.369h6.667l-3.325-9.369Z" transform="translate(-65.153 -45.671)" style="fill:#adff92"/><path d="M790.125,310.97a3.531,3.531,0,0,0,2.3-.612,2.683,2.683,0,0,0,.05-3.783,3.5,3.5,0,0,0-2.282-.681l-3.536-.047-.068,5.076Zm.076,10.492a4.529,4.529,0,0,0,2.908-.749,2.879,2.879,0,0,0,1-2.364,2.828,2.828,0,0,0-.932-2.35,4.557,4.557,0,0,0-2.895-.818l-3.752-.05-.084,6.281Zm6.058-8.547a5.692,5.692,0,0,1,3.159,2.179,6.343,6.343,0,0,1,1.078,3.838,5.9,5.9,0,0,1-2.493,5.14q-2.447,1.67-7.394,1.6L780,325.536l.32-23.983,9.6.128q5.163.069,7.459,1.61a5.347,5.347,0,0,1,2.252,4.866,5.124,5.124,0,0,1-.886,2.969,4.966,4.966,0,0,1-2.481,1.79Z" transform="translate(-65.153 -45.671)" style="fill:#ffa19b"/><path d="M422.763,383.99l10.269.486a6.22,6.22,0,0,1,3.646,4.253c.4,2.234,2.8,13.611,3.524,14.219s4.01,6.319,6.927,6.684,22.482,3.16,23.7,4.253,3.038,5.833,3.038,5.833l.243,11.788s-.729,3.646-1.823,4.253-21.267,2.552-21.267,2.552-6.076,1.458-7.17,4.983-3.281,18.107-4.253,19.08-2.309,3.038-5.1,3.4-16.528.608-16.528.608-5.1-1.094-6.319-2.8-4.253-16.771-4.253-16.771a12.052,12.052,0,0,0-8.021-6.927c-6.076-1.58-17.5-.243-20.9-1.823s-5.712-4.5-5.955-7.049-1.337-11.423-.851-12.153,2.8-5.1,4.132-5.226,19.687-2.187,21.753-3.767,6.684-5.226,6.927-7.656,1.308-16.094,2.248-16.1a7.731,7.731,0,0,1,2.021-1.222c1.008-.534,3.65-.674,7.033-.722C420.028,384.112,422.763,383.99,422.763,383.99Z" transform="translate(-65.153 -45.671)" style="fill:#868686;stroke:#000;stroke-width:0.9624383449554443px"/><path d="M799.934,63.162v9.861h-5.449v-25.7h7.488q5.238,0,7.752,1.907a6.807,6.807,0,0,1,2.514,5.792,6.819,6.819,0,0,1-1.248,4.034,8.258,8.258,0,0,1-3.533,2.769q5.8,8.666,7.559,11.2h-6.047l-6.135-9.861Zm0-4.43h1.758a6.725,6.725,0,0,0,3.814-.861,3.074,3.074,0,0,0,1.23-2.707,2.812,2.812,0,0,0-1.257-2.6,7.627,7.627,0,0,0-3.894-.773h-1.652Z" transform="translate(-65.153 -45.671)" style="fill:#fff"/><path d="M826.723,73.375a10.143,10.143,0,0,1-7.418-2.619q-2.672-2.619-2.672-7.418,0-4.939,2.47-7.638a8.794,8.794,0,0,1,6.829-2.7,8.656,8.656,0,0,1,6.486,2.373,8.978,8.978,0,0,1,2.32,6.557v2.6H822.064a5.161,5.161,0,0,0,1.354,3.568,4.762,4.762,0,0,0,3.551,1.283,14.741,14.741,0,0,0,3.357-.369,16.8,16.8,0,0,0,3.3-1.178v4.148a12.589,12.589,0,0,1-3.006,1.046A18.952,18.952,0,0,1,826.723,73.375Zm-.756-16.559a3.4,3.4,0,0,0-2.672,1.081,5,5,0,0,0-1.107,3.067h7.523a4.469,4.469,0,0,0-1.037-3.067A3.511,3.511,0,0,0,825.967,56.816Z" transform="translate(-65.153 -45.671)" style="fill:#fff"/><path d="M844.459,73.023H839.1V45.671h5.361Z" transform="translate(-65.153 -45.671)" style="fill:#fff"/><path d="M867.943,63.162a10.561,10.561,0,0,1-2.531,7.506,9.178,9.178,0,0,1-7.049,2.707,9.86,9.86,0,0,1-4.992-1.239,8.246,8.246,0,0,1-3.322-3.56,11.961,11.961,0,0,1-1.16-5.414q0-4.816,2.514-7.488A9.231,9.231,0,0,1,858.469,53a9.916,9.916,0,0,1,4.992,1.23,8.213,8.213,0,0,1,3.322,3.533A11.85,11.85,0,0,1,867.943,63.162Zm-13.588,0a8.248,8.248,0,0,0,.958,4.412,3.426,3.426,0,0,0,3.12,1.494,3.372,3.372,0,0,0,3.085-1.485,8.367,8.367,0,0,0,.94-4.421,8.117,8.117,0,0,0-.949-4.377,4.036,4.036,0,0,0-6.205-.009A8.11,8.11,0,0,0,854.355,63.162Z" transform="translate(-65.153 -45.671)" style="fill:#fff"/><path d="M884.854,73.023l-1.037-2.672h-.141a7.918,7.918,0,0,1-2.786,2.364,9,9,0,0,1-3.735.659,6.04,6.04,0,0,1-4.456-1.617,6.211,6.211,0,0,1-1.626-4.605,5.186,5.186,0,0,1,2.188-4.614q2.188-1.485,6.6-1.644l3.41-.105v-.861q0-2.988-3.059-2.988a13.938,13.938,0,0,0-5.537,1.424L872.9,54.742a15.977,15.977,0,0,1,7.523-1.775,9.372,9.372,0,0,1,6.064,1.723,6.366,6.366,0,0,1,2.109,5.238v13.1Zm-1.582-9.105-2.074.07a6.643,6.643,0,0,0-3.48.844,2.65,2.65,0,0,0-1.143,2.355q0,2.268,2.6,2.268a4.12,4.12,0,0,0,2.979-1.072,3.766,3.766,0,0,0,1.116-2.848Z" transform="translate(-65.153 -45.671)" style="fill:#fff"/><path d="M900.34,73.375a6.383,6.383,0,0,1-5.44-2.689,12.364,12.364,0,0,1-1.978-7.453q0-4.834,2.013-7.532A6.537,6.537,0,0,1,900.48,53a6.411,6.411,0,0,1,5.66,2.883h.176a21.918,21.918,0,0,1-.4-3.92V45.671h5.379V73.023h-4.113l-1.037-2.549h-.229A6.135,6.135,0,0,1,900.34,73.375Zm1.881-4.271a3.633,3.633,0,0,0,3.015-1.2,6.953,6.953,0,0,0,1.046-4.061v-.58a8.036,8.036,0,0,0-.976-4.535,3.624,3.624,0,0,0-3.173-1.371,3.147,3.147,0,0,0-2.786,1.521,8.112,8.112,0,0,0-.993,4.421,7.688,7.688,0,0,0,1,4.351A3.274,3.274,0,0,0,902.221,69.1Z" transform="translate(-65.153 -45.671)" style="fill:#fff"/><path d="M848.8,164.242h8q5.467,0,7.937,1.556a5.415,5.415,0,0,1,2.47,4.948,6.235,6.235,0,0,1-1.081,3.779,4.318,4.318,0,0,1-2.874,1.775v.176a5.662,5.662,0,0,1,3.524,2.039,6.634,6.634,0,0,1,1.081,3.973,6.546,6.546,0,0,1-2.54,5.484,10.985,10.985,0,0,1-6.9,1.969H848.8Zm5.449,10.178h3.164a5.785,5.785,0,0,0,3.208-.686,2.557,2.557,0,0,0,.993-2.268,2.269,2.269,0,0,0-1.081-2.118,6.948,6.948,0,0,0-3.419-.642h-2.865Zm0,4.324v6.7H857.8a5.267,5.267,0,0,0,3.322-.861,3.179,3.179,0,0,0,1.072-2.637q0-3.2-4.57-3.2Z" transform="translate(-65.153 -45.671)" style="fill:#fff"/><path d="M877.929,189.941h-5.361V162.589h5.361Z" transform="translate(-65.153 -45.671)" style="fill:#fff"/><path d="M896.034,189.941,895,187.269h-.141a7.918,7.918,0,0,1-2.786,2.364,9,9,0,0,1-3.735.659,6.04,6.04,0,0,1-4.456-1.617,6.211,6.211,0,0,1-1.626-4.605,5.186,5.186,0,0,1,2.188-4.614q2.188-1.485,6.6-1.644l3.41-.105v-.861q0-2.988-3.059-2.988a13.938,13.938,0,0,0-5.537,1.424l-1.775-3.621a15.977,15.977,0,0,1,7.523-1.775,9.372,9.372,0,0,1,6.064,1.723,6.366,6.366,0,0,1,2.109,5.238v13.1Zm-1.582-9.105-2.074.07a6.643,6.643,0,0,0-3.48.844,2.65,2.65,0,0,0-1.143,2.355q0,2.268,2.6,2.268a4.12,4.12,0,0,0,2.979-1.072,3.766,3.766,0,0,0,1.116-2.848Z" transform="translate(-65.153 -45.671)" style="fill:#fff"/><path d="M919.009,184.1a5.411,5.411,0,0,1-2.1,4.605q-2.1,1.582-6.284,1.582a19.738,19.738,0,0,1-3.656-.29,13.83,13.83,0,0,1-2.83-.853v-4.43A18.69,18.69,0,0,0,907.5,185.9a13.63,13.63,0,0,0,3.3.475q2.918,0,2.918-1.687a1.408,1.408,0,0,0-.387-1.028,5.607,5.607,0,0,0-1.336-.9q-.949-.5-2.531-1.169a15.9,15.9,0,0,1-3.331-1.758,4.948,4.948,0,0,1-1.547-1.854,6.122,6.122,0,0,1-.483-2.575,4.668,4.668,0,0,1,2.03-4.052,9.89,9.89,0,0,1,5.757-1.433,16.341,16.341,0,0,1,6.908,1.547l-1.617,3.867q-1.477-.633-2.76-1.037a8.666,8.666,0,0,0-2.619-.4q-2.373,0-2.373,1.283a1.509,1.509,0,0,0,.765,1.248,20.8,20.8,0,0,0,3.349,1.564,15.557,15.557,0,0,1,3.375,1.74,5.147,5.147,0,0,1,1.582,1.863A5.726,5.726,0,0,1,919.009,184.1Z" transform="translate(-65.153 -45.671)" style="fill:#fff"/><path d="M931.472,186.021a11.622,11.622,0,0,0,3.375-.615v3.99a12.034,12.034,0,0,1-4.922.9q-3.217,0-4.685-1.626a7.077,7.077,0,0,1-1.468-4.878v-9.475h-2.566v-2.268l2.953-1.793,1.547-4.148h3.428v4.184h5.5v4.025h-5.5v9.475a2.093,2.093,0,0,0,.642,1.688A2.531,2.531,0,0,0,931.472,186.021Z" transform="translate(-65.153 -45.671)" style="fill:#fff"/><path d="M139.124,176.846q0,6.346-3.612,9.721t-10.433,3.375H117.8v-25.7h8.068q6.293,0,9.773,3.322T139.124,176.846Zm-5.66.141q0-8.279-7.313-8.279h-2.9v16.734h2.338Q133.464,185.441,133.464,176.986Z" transform="translate(-65.153 -45.671)" style="fill:#fff"/><path d="M156.509,189.941l-1.037-2.672h-.141a7.918,7.918,0,0,1-2.786,2.364,9,9,0,0,1-3.735.659,6.04,6.04,0,0,1-4.456-1.617,6.211,6.211,0,0,1-1.626-4.605,5.186,5.186,0,0,1,2.188-4.614q2.188-1.485,6.6-1.644l3.41-.105v-.861q0-2.988-3.059-2.988a13.938,13.938,0,0,0-5.537,1.424l-1.775-3.621a15.977,15.977,0,0,1,7.523-1.775,9.372,9.372,0,0,1,6.064,1.723,6.366,6.366,0,0,1,2.109,5.238v13.1Zm-1.582-9.105-2.074.07a6.643,6.643,0,0,0-3.48.844,2.65,2.65,0,0,0-1.143,2.355q0,2.268,2.6,2.268a4.12,4.12,0,0,0,2.979-1.072,3.766,3.766,0,0,0,1.116-2.848Z" transform="translate(-65.153 -45.671)" style="fill:#fff"/><path d="M179.483,184.105a5.411,5.411,0,0,1-2.1,4.605q-2.1,1.582-6.284,1.582a19.738,19.738,0,0,1-3.656-.29,13.83,13.83,0,0,1-2.83-.853v-4.43a18.69,18.69,0,0,0,3.366,1.178,13.63,13.63,0,0,0,3.3.475q2.918,0,2.918-1.687a1.408,1.408,0,0,0-.387-1.028,5.607,5.607,0,0,0-1.336-.9q-.949-.5-2.531-1.169a15.9,15.9,0,0,1-3.331-1.758,4.948,4.948,0,0,1-1.547-1.854,6.122,6.122,0,0,1-.483-2.575,4.668,4.668,0,0,1,2.03-4.052,9.89,9.89,0,0,1,5.757-1.433,16.341,16.341,0,0,1,6.908,1.547l-1.617,3.867q-1.477-.633-2.76-1.037a8.666,8.666,0,0,0-2.619-.4q-2.373,0-2.373,1.283a1.509,1.509,0,0,0,.765,1.248,20.8,20.8,0,0,0,3.349,1.564,15.557,15.557,0,0,1,3.375,1.74,5.147,5.147,0,0,1,1.582,1.863A5.726,5.726,0,0,1,179.483,184.105Z" transform="translate(-65.153 -45.671)" style="fill:#fff"/><path d="M201.808,189.941h-5.361V178.463q0-4.254-3.164-4.254a3.6,3.6,0,0,0-3.252,1.529,9.34,9.34,0,0,0-1,4.957v9.246h-5.361V162.59h5.361v5.572q0,.65-.123,3.059l-.123,1.582h.281a6.211,6.211,0,0,1,5.7-2.883,6.963,6.963,0,0,1,5.256,1.863,7.4,7.4,0,0,1,1.793,5.344Z" transform="translate(-65.153 -45.671)" style="fill:#fff"/><path d="M76.034,348.329l-6.187-20.162h-.158q.334,6.152.334,8.209v11.953H65.153v-25.7h7.418l6.082,19.652h.105l6.451-19.652h7.418v25.7h-5.08V336.165q0-.861.026-1.986t.237-5.977h-.158l-6.627,20.127Z" transform="translate(-65.153 -45.671)" style="fill:#fff"/><path d="M116.534,338.467A10.561,10.561,0,0,1,114,345.973a9.178,9.178,0,0,1-7.049,2.707,9.86,9.86,0,0,1-4.992-1.239,8.246,8.246,0,0,1-3.322-3.56,11.961,11.961,0,0,1-1.16-5.414q0-4.816,2.514-7.488a9.231,9.231,0,0,1,7.066-2.672,9.916,9.916,0,0,1,4.992,1.23,8.213,8.213,0,0,1,3.322,3.533A11.85,11.85,0,0,1,116.534,338.467Zm-13.588,0a8.248,8.248,0,0,0,.958,4.412,3.426,3.426,0,0,0,3.12,1.494,3.372,3.372,0,0,0,3.085-1.485,8.367,8.367,0,0,0,.94-4.421,8.117,8.117,0,0,0-.949-4.377,4.036,4.036,0,0,0-6.205-.009A8.11,8.11,0,0,0,102.946,338.467Z" transform="translate(-65.153 -45.671)" style="fill:#fff"/><path d="M125.64,348.329l-7.488-19.652h5.607l3.8,11.2a19.98,19.98,0,0,1,.791,4.025h.105a17.5,17.5,0,0,1,.791-4.025l3.779-11.2h5.607l-7.488,19.652Z" transform="translate(-65.153 -45.671)" style="fill:#fff"/><path d="M150.337,348.68a10.143,10.143,0,0,1-7.418-2.619q-2.672-2.619-2.672-7.418,0-4.939,2.47-7.638a8.794,8.794,0,0,1,6.829-2.7,8.656,8.656,0,0,1,6.486,2.373,8.978,8.978,0,0,1,2.32,6.557v2.6H145.679a5.161,5.161,0,0,0,1.354,3.568,4.762,4.762,0,0,0,3.551,1.283,14.741,14.741,0,0,0,3.357-.369,16.8,16.8,0,0,0,3.3-1.178v4.148a12.589,12.589,0,0,1-3.006,1.046A18.952,18.952,0,0,1,150.337,348.68Zm-.756-16.559a3.4,3.4,0,0,0-2.672,1.081,5,5,0,0,0-1.107,3.067h7.523a4.469,4.469,0,0,0-1.037-3.067A3.511,3.511,0,0,0,149.581,332.122Z" transform="translate(-65.153 -45.671)" style="fill:#fff"/><path d="M604.3,554.329l-1.863-6.117h-9.369l-1.863,6.117h-5.871l9.07-25.8h6.662l9.105,25.8Zm-3.164-10.687q-2.584-8.314-2.909-9.4t-.466-1.723q-.58,2.25-3.322,11.127Z" transform="translate(-65.153 -45.671)" style="fill:#fff"/><path d="M612.753,529.6q0-2.619,2.918-2.619t2.918,2.619a2.554,2.554,0,0,1-.729,1.942,3.066,3.066,0,0,1-2.188.694Q612.753,532.233,612.753,529.6Zm5.59,24.732h-5.361V534.676h5.361Z" transform="translate(-65.153 -45.671)" style="fill:#fff"/><path d="M641.563,554.329H636.2V542.85a5.782,5.782,0,0,0-.712-3.19,2.5,2.5,0,0,0-2.241-1.063,3.246,3.246,0,0,0-2.988,1.512,9.916,9.916,0,0,0-.932,4.975v9.246h-5.361V534.676h4.1l.721,2.514h.3a5.447,5.447,0,0,1,2.285-2.118,7.42,7.42,0,0,1,3.428-.765q4.412,0,5.977,2.883h.475a5.309,5.309,0,0,1,2.329-2.127,7.768,7.768,0,0,1,3.472-.756,6.853,6.853,0,0,1,5.054,1.714q1.714,1.714,1.714,5.493v12.814h-5.379V542.85a5.782,5.782,0,0,0-.712-3.19,2.5,2.5,0,0,0-2.241-1.063A3.344,3.344,0,0,0,642.539,540a7.979,7.979,0,0,0-.976,4.465Z" transform="translate(-65.153 -45.671)" style="fill:#fff"/><line x1="647.728" y1="88.7" x2="719.71" y2="16.718" style="fill:none;stroke:#ed1c24;stroke-miterlimit:10;stroke-width:4px"/><line x1="686.632" y1="133.917" x2="775.243" y2="133.917" style="fill:none;stroke:#ed1c24;stroke-miterlimit:10;stroke-width:4px"/><line x1="145.313" y1="133.917" x2="233.924" y2="133.917" style="fill:none;stroke:#ed1c24;stroke-miterlimit:10;stroke-width:4px"/><line x1="100.782" y1="292.249" x2="253.349" y2="292.249" style="fill:none;stroke:#ed1c24;stroke-miterlimit:10;stroke-width:4px"/><line x1="556.994" y1="384.06" x2="556.994" y2="472.67" style="fill:none;stroke:#ed1c24;stroke-miterlimit:10;stroke-width:4px"/></svg>